<?xml version="1.0" encoding="UTF-8"?>
<svg width="427px" height="327px" viewBox="0 0 427 327" version="1.1" xmlns="http://www.w3.org/2000/svg" xmlns:xlink="http://www.w3.org/1999/xlink">
    <!-- Generator: Sketch 48.2 (47327) - http://www.bohemiancoding.com/sketch -->
    <title>Logo</title>
    <desc>Created with Sketch.</desc>
    <defs></defs>
    <g id="Logos" stroke="none" stroke-width="1" fill="none" fill-rule="evenodd">
        <g id="Logo" fill="#9EE6E7">
            <path d="M178.151266,48.056783 L178.151266,23.3 C178.151266,19.8206061 180.971872,17 184.451266,17 L239.19594,17 C242.675334,17 245.49594,19.8206061 245.49594,23.3 L245.49594,45.4914658 C245.49594,47.6982012 246.650555,49.7440767 248.539662,50.8846707 L291.949566,77.0944434 C293.833275,78.2317779 296.173893,78.3038718 298.124027,77.2846244 L320.188291,65.7526269 C323.156851,64.2010943 326.820479,65.2437408 328.527253,68.1258452 L354.108924,111.323755 C355.680984,113.978378 355.099309,117.380922 352.734668,119.362554 L332.27464,136.508599 C330.846267,137.705614 330.02116,139.473606 330.02116,141.33723 L330.02116,189.314727 C330.02116,191.422778 331.075512,193.391129 332.830368,194.559187 L351.977385,207.303732 C354.718137,209.128018 355.59201,212.75504 353.982833,215.627371 L328.650317,260.845147 C326.949733,263.880636 323.110387,264.962792 320.074898,263.262209 C320.023221,263.233258 319.971955,263.203579 319.921115,263.173182 L302.484074,252.747615 C300.499017,251.560755 298.023233,251.556996 296.034583,252.737825 L252.102394,278.824053 C250.190749,279.959157 249.018924,282.017806 249.018924,284.241057 L249.018924,303.7 C249.018924,307.179394 246.198318,310 242.718924,310 L190.249311,310 C186.769917,310 183.949311,307.179394 183.949311,303.7 L183.949311,284.216812 C183.949311,282.00664 182.791125,279.958102 180.897329,278.818629 L137.31788,252.59743 C135.478456,251.490673 133.202068,251.396725 131.277703,252.348149 L107.912921,263.899915 C104.950964,265.364334 101.36087,264.291567 99.6879345,261.442182 L72.867969,215.761764 C71.1547295,212.843733 72.0526144,209.093482 74.9016078,207.26774 L94.7497881,194.548285 C96.5573406,193.389937 97.6505993,191.390854 97.6505993,189.243992 L97.6505993,137.026445 C97.6505993,134.86726 96.5448443,132.858484 94.7205286,131.703516 L75.0757664,119.26648 C72.1545972,117.417098 71.2696516,113.559056 73.0927936,110.621438 L99.4487061,68.1543108 C101.238277,65.2707851 104.990345,64.3229871 107.934644,66.010705 L127.340207,77.1342766 C129.277001,78.2444768 131.656699,78.2467899 133.595647,77.140357 L174.97367,53.5285828 C176.938433,52.4074193 178.151266,50.3189278 178.151266,48.056783 Z M201.580863,212.377935 L221.677441,230.329825 C222.205292,230.801344 222.888291,231.061977 223.596073,231.061977 C225.186653,231.061977 226.476073,229.772557 226.476073,228.181977 L226.476073,212.377935 C248.889523,212.377935 267.059214,194.208244 267.059214,171.794795 L267.059214,166.688968 C267.059214,141.455648 246.603566,121 221.370246,121 L204.688968,121 C179.455648,121 159,141.455648 159,166.688968 L159,169.797072 C159,193.313833 178.064102,212.377935 201.580863,212.377935 Z" id="Combined-Shape-Copy-17"></path>
        </g>
    </g>
</svg>